<?xml version="1.0" encoding="utf-8"?>
<!-- Generator: Adobe Illustrator 19.1.0, SVG Export Plug-In . SVG Version: 6.00 Build 0)  -->
<svg version="1.1" id="Layer_1" xmlns="http://www.w3.org/2000/svg" xmlns:xlink="http://www.w3.org/1999/xlink" x="0px" y="0px"
	 viewBox="0 0 1285 881.9" style="enable-background:new 0 0 1285 881.9;" xml:space="preserve">
<style type="text/css">
	.st0{fill:#FFFFFF;stroke:#939598;stroke-miterlimit:10;}
	.st1{fill:#FFFFFF;stroke:#F0C419;stroke-width:5;stroke-miterlimit:10;}
	.st2{fill:none;stroke:#A7A9AC;stroke-width:3;stroke-miterlimit:10;}
	.st3{fill:#277CAE;}
	.st4{fill:#DEE0E2;}
	.st5{fill:#FFFFFF;stroke:#6B6B6B;stroke-miterlimit:10;}
	.st6{fill:none;}
	.st7{font-family:'GDSTransportWebsite-Bold';}
	.st8{font-size:23.4097px;}
	.st9{font-size:19.7134px;}
	.st10{font-family:'GDSTransportWebsite';}
	.st11{font-size:14.7851px;}
	.st12{fill:#FFFFFF;}
	.st13{font-size:47.6383px;}
	.st14{font-size:31.5261px;}
	.st15{font-size:21.1061px;}
	.st16{fill:#F0C419;}
	.st17{font-size:33.6251px;}
	.st18{font-size:28.3159px;}
	.st19{font-size:20px;}
	.st20{font-size:22.0208px;}
	.st21{font-size:31.4583px;}
</style>
<rect class="st0" width="597" height="881.9"/>
<rect x="38.4" y="739.4" class="st1" width="407.9" height="32"/>
<g>
	<polyline class="st2" points="597,881.9 0,881.9 0,0 597,0 	"/>
	<rect x="25" y="107.1" class="st3" width="543.5" height="91.1"/>
	<rect x="25.2" y="286.5" class="st4" width="543.5" height="40.4"/>
	<rect x="25.2" y="339.7" class="st5" width="543.5" height="80.7"/>
	<rect x="25.2" y="433.3" class="st5" width="543.5" height="80.7"/>
	<rect x="25.2" y="580" class="st3" width="543.5" height="36.3"/>
	<rect x="47.7" y="638.3" class="st6" width="520.8" height="141.2"/>
	<text transform="matrix(1 0 0 1 47.6606 654.7249)"><tspan x="0" y="0" class="st7 st8">Other support you may be able to get</tspan><tspan x="0" y="51.7" class="st7 st9">Examples of support you can get</tspan><tspan x="0" y="69.5" class="st10 st11">What you can get depends onhow much you earn.</tspan><tspan x="0" y="105" class="st10 st11">Your take-home pay for this Universal Credit period is </tspan><tspan x="340.1" y="105" class="st7 st11">£x.xx</tspan></text>
	<rect x="47.7" y="212.7" class="st6" width="520.8" height="53.4"/>
	<text transform="matrix(1 0 0 1 47.6606 229.0691)" class="st7 st8">How we calculate your payment</text>
	<rect x="228" y="132" class="st6" width="138.1" height="66.2"/>
	<text transform="matrix(1.0613 0 0 1 228.0088 165.3544)" class="st12 st7 st13">£500</text>
	<rect x="28.1" y="69.6" class="st6" width="199.9" height="95.3"/>
	<text transform="matrix(1 0 0 1 28.1143 91.6218)" class="st7 st14">Statement</text>
	<rect x="47.6" y="244.9" width="387.2" height="5"/>
	<rect x="47.6" y="263.6" width="387.2" height="5"/>
	<rect x="25.2" y="526.8" class="st4" width="543.5" height="40.4"/>
	<rect x="47.5" y="377.5" width="387.2" height="5"/>
	<rect x="47.5" y="471.1" width="387.2" height="5"/>
	<rect x="47.6" y="544.5" width="387.2" height="5"/>
	<rect x="47.6" y="595.6" class="st12" width="387.2" height="5"/>
	<text transform="matrix(1 0 0 1 460.4248 382.5725)" class="st7 st14">£x.xx</text>
	<text transform="matrix(1 0 0 1 460.4248 476.1297)" class="st7 st14">£x.xx</text>
	<text transform="matrix(1 0 0 1 460.4258 556.2761)" class="st7 st14">£x.xx</text>
	<text transform="matrix(1 0 0 1 460.4248 607.6619)" class="st12 st7 st14">£x.xx</text>
	<rect x="47.6" y="671" width="387.2" height="5"/>
	<rect x="47.6" y="788" width="387.2" height="5"/>
	<rect x="47.6" y="806.7" width="387.2" height="5"/>
	<rect x="47.5" y="828" width="521" height="5"/>
	<rect x="47.5" y="846.7" width="521" height="5"/>
	<rect width="597" height="40"/>
	<path class="st12" d="M40.8,31.4c4.3,0,8.3,0.3,11.9,0.8c1-4.3,2.3-6.7,3.5-8.5l-2.4-0.9c0.2,1.2,0.3,1.8,0,2.6
		c-0.4-0.4-0.8-1.1-1.1-2.2l-1.2,3.9c0.7-0.5,1.3-0.8,1.9-0.8c-1.1,2.4-2.5,3-3.4,2.8c-1.1-0.2-1.6-1.2-1.4-2c0.3-1.2,1.5-1.5,2-0.1
		c1.1-2.2-0.8-2.9-1.9-2.2c1.8-1.8,2-3.4,0.6-5.4c-2,1.6-2.1,3.1-1.1,5.3c-1.2-1.4-3-0.6-2.4,1.6c0.9-1.3,2-0.5,1.8,0.8
		c-0.2,1.1-1.6,2-3.4,1.8c-2.6-0.2-2.7-2-2.8-3.5c0.6-0.1,1.8,0.5,2.8,1.8l0.4-4.1c-1.1,1.1-2,1.3-3.1,1.4c0.4-1.1,2-2.9,2-2.9H41h0
		h0h-2.8c0,0,1.6,1.8,2,2.9c-1.1,0-2-0.2-3.1-1.4l0.4,4.1c1-1.4,2.1-2,2.8-1.8c-0.1,1.5-0.2,3.3-2.8,3.5C35.6,29,34.1,28.1,34,27
		c-0.2-1.3,1-2.1,1.8-0.8c0.7-2.2-1.2-2.9-2.4-1.6c0.9-2.2,0.9-3.7-1.1-5.3c-1.5,1.9-1.3,3.6,0.6,5.4c-1.2-0.7-3,0-1.9,2.2
		c0.6-1.4,1.8-1.1,2,0.1c0.2,0.8-0.3,1.8-1.4,2c-0.9,0.2-2.3-0.5-3.4-2.8c0.6,0,1.2,0.3,1.9,0.8l-1.2-3.9c-0.3,1.1-0.7,1.8-1.1,2.2
		c-0.3-0.8-0.2-1.4,0-2.6l-2.4,0.9c1.3,1.7,2.5,4.2,3.5,8.5C32.5,31.6,36.5,31.4,40.8,31.4"/>
	<path class="st12" d="M51.1,15.5c-0.9,0.4-1.9-0.1-2.3-1c-0.4-0.9,0.1-1.9,1-2.3c0.9-0.4,1.9,0.1,2.3,1
		C52.5,14.1,52,15.1,51.1,15.5"/>
	<path class="st12" d="M46.7,16.9c-0.9,0.4-1.9-0.1-2.3-1c-0.4-0.9,0.1-1.9,1-2.3c0.9-0.4,1.9,0.1,2.3,1
		C48,15.5,47.6,16.5,46.7,16.9"/>
	<path class="st12" d="M55.2,17.9c-0.9,0.4-1.9-0.1-2.3-1c-0.4-0.9,0.1-1.9,1-2.3c0.9-0.4,1.9,0.1,2.3,1
		C56.5,16.5,56.1,17.5,55.2,17.9"/>
	<path class="st12" d="M56.3,22.3c-0.9,0.4-1.9-0.1-2.3-1c-0.4-0.9,0.1-1.9,1-2.3c0.9-0.4,1.9,0.1,2.3,1
		C57.7,20.9,57.2,22,56.3,22.3"/>
	<path class="st12" d="M34.9,16.9c0.9,0.4,1.9-0.1,2.3-1c0.4-0.9-0.1-1.9-1-2.3c-0.9-0.4-1.9,0.1-2.3,1C33.6,15.5,34,16.5,34.9,16.9
		"/>
	<path class="st12" d="M30.4,15.5c0.9,0.4,1.9-0.1,2.3-1c0.4-0.9-0.1-1.9-1-2.3c-0.9-0.4-1.9,0.1-2.3,1
		C29.1,14.1,29.5,15.1,30.4,15.5"/>
	<path class="st12" d="M26.4,17.9c0.9,0.4,1.9-0.1,2.3-1c0.4-0.9-0.1-1.9-1-2.3c-0.9-0.4-1.9,0.1-2.3,1
		C25.1,16.5,25.5,17.5,26.4,17.9"/>
	<path class="st12" d="M25.2,22.3c0.9,0.4,1.9-0.1,2.3-1c0.4-0.9-0.1-1.9-1-2.3c-0.9-0.4-1.9,0.1-2.3,1C23.9,20.9,24.3,22,25.2,22.3
		"/>
	<path class="st12" d="M41.7,12.3L41.7,12.3l2.2,1.2v-3.3l-2.2,0.7l0,0c-0.1-0.1-0.1-0.2-0.2-0.2l0,0l0.9-2.8l-1.6,0l-1.6,0l0.9,2.8
		l0,0c-0.1,0.1-0.2,0.1-0.2,0.2l0,0l-2.2-0.7v3.3l2.2-1.2l0,0c0.1,0.1,0.1,0.2,0.2,0.2l-1.3,3.9c0,0,0,0,0,0l0,0l0,0
		c-0.1,0.2-0.1,0.4-0.1,0.6c0,1.1,0.8,1.9,1.8,2.1c0,0,0,0,0,0c0.1,0,0.2,0,0.3,0c0.1,0,0.2,0,0.3,0c0,0,0,0,0,0
		c1-0.1,1.8-1,1.8-2.1c0-0.2,0-0.4-0.1-0.6v0l0,0c0,0,0,0,0,0l-1.3-3.9C41.6,12.5,41.6,12.4,41.7,12.3"/>
	<rect x="63.4" y="16.2" class="st6" width="204.3" height="15.4"/>
	<text transform="matrix(1 0 0 1 63.3977 30.9501)" class="st12 st7 st15">Universal Credit</text>
</g>
<g>
	<polygon class="st16" points="617.6,444.9 448.7,737.7 448.7,774 1267.6,661.6 	"/>
</g>
<g>
	<g>
		<rect x="617.6" y="444.9" class="st1" width="650" height="216.8"/>
	</g>
	<rect x="630.7" y="596.6" class="st16" width="623.8" height="44.1"/>
	<rect x="638.3" y="421.4" class="st6" width="616.3" height="317.3"/>
	<text transform="matrix(1 0 0 1 638.2529 499.7182)"><tspan x="0" y="0" class="st7 st17">Other support you may be able to get</tspan><tspan x="0" y="46" class="st7 st18">Examples of support you can get</tspan><tspan x="0" y="70" class="st10 st19">What you can get depends onhow much you earn.</tspan></text>
	<text transform="matrix(1 0 0 1 640.6388 627.6047)"><tspan x="0" y="0" class="st7 st20">Your take-home pay for this Universal Credit period is</tspan><tspan x="523.7" y="0" class="st7 st21"> £x.xx</tspan></text>
</g>
</svg>
