<?xml version="1.0" encoding="utf-8"?>
<!-- Generator: Adobe Illustrator 19.1.0, SVG Export Plug-In . SVG Version: 6.00 Build 0)  -->
<svg version="1.1" id="Layer_1" xmlns="http://www.w3.org/2000/svg" xmlns:xlink="http://www.w3.org/1999/xlink" x="0px" y="0px"
	 viewBox="564 -425.9 1269.7 881.9" style="enable-background:new 564 -425.9 1269.7 881.9;" xml:space="preserve">
<style type="text/css">
	.st0{fill:none;stroke:#A7A9AC;stroke-width:5;stroke-miterlimit:10;}
	.st1{fill:#DEE0E2;}
	.st2{fill:none;stroke:#DEE0E2;stroke-width:5;stroke-miterlimit:10;}
	.st3{fill:none;}
	.st4{enable-background:new    ;}
	.st5{font-family:'ArialMT';}
	.st6{font-size:14.7851px;}
	.st7{font-family:'Arial-BoldMT';}
	.st8{font-size:21px;}
	.st9{fill:#A7A9AC;}
	.st10{font-size:25px;}
	.st11{fill:#FFFFFF;}
	.st12{fill:#EFC319;}
	.st13{fill:#FFFFFF;stroke:#EFC319;stroke-width:5;stroke-miterlimit:10;}
	.st14{fill:#231F20;}
	.st15{font-size:27px;}
	.st16{font-size:20px;}
	.st17{font-family:'GDSTransportWebsite-Bold';}
	.st18{font-size:22.0208px;}
	.st19{font-size:31.4583px;}
	.st20{fill:none;stroke:#EFC319;stroke-width:5;stroke-miterlimit:10;}
</style>
<rect x="564" y="-425.9" class="st0" width="597" height="881.9"/>
<g>
	<rect x="589" y="220.1" class="st1" width="543.5" height="39.6"/>
	<rect x="589" y="-301.9" class="st2" width="543.5" height="79.2"/>
	<rect x="611.7" y="212.4" class="st3" width="520.8" height="141.2"/>
	<text transform="matrix(1 0 0 1 600.6606 -12.3997)" class="st4"><tspan x="0" y="0" class="st5 st6">Take-home pay is what’s left after tax, National Insurance and any pension</tspan><tspan x="0" y="17.7" class="st5 st6">contributions have been deducted</tspan></text>
	<text transform="matrix(1 0 0 1 600.6605 28.6003)" class="st7 st6">Your take-home pay for this period is £198.11</text>
	<text transform="matrix(1 0 0 1 600.6605 51.6003)" class="st5 st6">Every £1 you earn in take home pay reduces your Universal Credit by 65 pence.</text>
	<text transform="matrix(1 0 0 1 600.6603 83.6003)" class="st7 st6">The total we take off for take-home pay is:</text>
	<rect x="611.7" y="-213.2" class="st3" width="520.8" height="53.4"/>
	<text transform="matrix(1 0 0 1 589.1119 -360.2774)" class="st7 st8">How your Universal Credit payments are worked out</text>
	<rect x="645" y="-261.5" class="st9" width="353.8" height="5"/>
	<rect x="589" y="-335.9" class="st9" width="387.2" height="5"/>
	<text transform="matrix(1 0 0 1 1024.4248 -256.4882)" class="st7 st10">£x.xx</text>
	<text transform="matrix(1 0 0 1 1024.4248 84.6008)" class="st7 st10">£x.xx</text>
	<text transform="matrix(1 0 0 1 611.5 -256.4884)" class="st7 st10">1.</text>
	<rect x="611.6" y="239.1" class="st9" width="387.2" height="5"/>
	<rect x="611.6" y="289.6" class="st9" width="387.2" height="5"/>
	<rect x="611.6" y="309.3" class="st9" width="387.2" height="5"/>
	<rect x="611.6" y="328.9" class="st9" width="520.9" height="5"/>
	<rect x="611.6" y="348.6" class="st9" width="520.9" height="5"/>
	<path class="st11" d="M615.1-410.4c-0.9,0.4-1.9-0.1-2.3-1c-0.4-0.9,0.1-1.9,1-2.3c0.9-0.4,1.9,0.1,2.3,1
		C616.5-411.8,616-410.8,615.1-410.4"/>
	<path class="st11" d="M610.7-409c-0.9,0.4-1.9-0.1-2.3-1c-0.4-0.9,0.1-1.9,1-2.3c0.9-0.4,1.9,0.1,2.3,1
		C612-410.4,611.6-409.4,610.7-409"/>
	<path class="st11" d="M619.2-408c-0.9,0.4-1.9-0.1-2.3-1c-0.4-0.9,0.1-1.9,1-2.3c0.9-0.4,1.9,0.1,2.3,1
		C620.5-409.4,620.1-408.4,619.2-408"/>
	<path class="st11" d="M598.9-409c0.9,0.4,1.9-0.1,2.3-1c0.4-0.9-0.1-1.9-1-2.3c-0.9-0.4-1.9,0.1-2.3,1
		C597.6-410.4,598-409.4,598.9-409"/>
	<path class="st11" d="M594.4-410.4c0.9,0.4,1.9-0.1,2.3-1c0.4-0.9-0.1-1.9-1-2.3c-0.9-0.4-1.9,0.1-2.3,1
		C593.1-411.8,593.5-410.8,594.4-410.4"/>
	<path class="st11" d="M590.4-408c0.9,0.4,1.9-0.1,2.3-1c0.4-0.9-0.1-1.9-1-2.3c-0.9-0.4-1.9,0.1-2.3,1
		C589.1-409.4,589.5-408.4,590.4-408"/>
	<path class="st11" d="M589.2-403.6c0.9,0.4,1.9-0.1,2.3-1c0.4-0.9-0.1-1.9-1-2.3s-1.9,0.1-2.3,1C587.9-405,588.3-403.9,589.2-403.6
		"/>
	<path class="st11" d="M605.7-413.6L605.7-413.6l2.2,1.2v-3.3l-2.2,0.7l0,0c-0.1-0.1-0.1-0.2-0.2-0.2l0,0l0.9-2.8h-1.6h-1.6l0.9,2.8
		l0,0c-0.1,0.1-0.2,0.1-0.2,0.2l0,0l-2.2-0.7v3.3l2.2-1.2l0,0c0.1,0.1,0.1,0.2,0.2,0.2l-1.3,3.9l0,0l0,0l0,0
		c-0.1,0.2-0.1,0.4-0.1,0.6c0,1.1,0.8,1.9,1.8,2.1l0,0c0.1,0,0.2,0,0.3,0c0.1,0,0.2,0,0.3,0l0,0c1-0.1,1.8-1,1.8-2.1
		c0-0.2,0-0.4-0.1-0.6l0,0l0,0l0,0l-1.3-3.9C605.6-413.4,605.6-413.5,605.7-413.6"/>
	<rect x="589" y="-204.3" class="st2" width="543.5" height="79.2"/>
	<rect x="645" y="-163.9" class="st9" width="353.8" height="5"/>
	<text transform="matrix(1 0 0 1 1024.4248 -158.9)" class="st7 st10">£x.xx</text>
	<text transform="matrix(1 0 0 1 611.5 -158.9003)" class="st7 st10">2.</text>
	<rect x="589" y="117.1" class="st2" width="543.5" height="79.2"/>
	<rect x="645" y="157.5" class="st9" width="353.8" height="5"/>
	<text transform="matrix(1 0 0 1 1024.4248 162.5118)" class="st7 st10">£x.xx</text>
	<text transform="matrix(1 0 0 1 611.5 162.5116)" class="st7 st10">4.</text>
	<rect x="589" y="-103.1" class="st2" width="543.5" height="65.2"/>
	<text transform="matrix(1 0 0 1 613.25 -57.6884)" class="st7 st10">3.</text>
	<rect x="589" y="61.1" class="st2" width="543.5" height="35"/>
	<text transform="matrix(1 0 0 1 645.0001 -57.6882)" class="st7 st8">We then take account of your take-home pay</text>
</g>
<line class="st2" x1="589" y1="-37.9" x2="589" y2="61.1"/>
<line class="st2" x1="1132.5" y1="-37.9" x2="1132.5" y2="61.1"/>
<g>
	<polygon class="st12" points="1179.8,-296.2 927.8,9.8 930.2,37.4 1833.7,-74.6 	"/>
</g>
<g>
	<g>
		<rect x="1181.7" y="-294" class="st13" width="650" height="216.8"/>
	</g>
	<rect x="1194.8" y="-142.3" class="st12" width="623.8" height="44.1"/>
	<rect x="1202.4" y="-317.6" class="st3" width="616.3" height="317.3"/>
	<text transform="matrix(1 0 0 1 1202.3553 -247.1585)"><tspan x="0" y="0" class="st14 st7 st15">3. We then take account of your take-home pay</tspan><tspan x="0" y="48" class="st14 st7 st16">Take-home pay is what’s left afetr tax, National Insurance and </tspan><tspan x="0" y="72" class="st14 st7 st16">any pension contributions have been deducted</tspan></text>
	<text transform="matrix(1 0 0 1 1204.7412 -111.3228)"><tspan x="0" y="0" class="st14 st17 st18">Your take-home pay for this period is</tspan><tspan x="359.3" y="0" class="st14 st17 st19"> £x.xx</tspan></text>
</g>
<rect x="589.1" y="12" class="st20" width="338.6" height="23"/>
</svg>
